<mxfile host="65bd71144e">
    <diagram id="FV0l3nEimNyAP64lY1u8" name="Page-1">
        <mxGraphModel dx="2423" dy="3152" grid="1" gridSize="10" guides="1" tooltips="1" connect="1" arrows="1" fold="1" page="1" pageScale="1" pageWidth="850" pageHeight="1100" math="0" shadow="0">
            <root>
                <mxCell id="0"/>
                <mxCell id="1" parent="0"/>
                <mxCell id="24" value="" style="whiteSpace=wrap;html=1;" parent="1" vertex="1">
                    <mxGeometry x="580" y="50" width="1250" height="880" as="geometry"/>
                </mxCell>
                <mxCell id="2" value="Xr(0)" style="whiteSpace=wrap;html=1;" parent="1" vertex="1">
                    <mxGeometry x="160" y="240" width="230" height="30" as="geometry"/>
                </mxCell>
                <mxCell id="3" value="Yr(0)" style="whiteSpace=wrap;html=1;" parent="1" vertex="1">
                    <mxGeometry x="160" y="280" width="230" height="30" as="geometry"/>
                </mxCell>
                <mxCell id="4" value="Zr(1)" style="whiteSpace=wrap;html=1;" parent="1" vertex="1">
                    <mxGeometry x="160" y="320" width="230" height="30" as="geometry"/>
                </mxCell>
                <mxCell id="5" value="Tr(0)" style="whiteSpace=wrap;html=1;" parent="1" vertex="1">
                    <mxGeometry x="160" y="360" width="230" height="30" as="geometry"/>
                </mxCell>
                <mxCell id="6" value="Xp" style="whiteSpace=wrap;html=1;" parent="1" vertex="1">
                    <mxGeometry x="160" y="430" width="230" height="30" as="geometry"/>
                </mxCell>
                <mxCell id="7" value="Yp" style="whiteSpace=wrap;html=1;" parent="1" vertex="1">
                    <mxGeometry x="160" y="470" width="230" height="30" as="geometry"/>
                </mxCell>
                <mxCell id="8" value="1" style="whiteSpace=wrap;html=1;" parent="1" vertex="1">
                    <mxGeometry x="160" y="510" width="230" height="30" as="geometry"/>
                </mxCell>
                <mxCell id="9" value="Tp (XpYp)" style="whiteSpace=wrap;html=1;" parent="1" vertex="1">
                    <mxGeometry x="160" y="550" width="230" height="30" as="geometry"/>
                </mxCell>
                <mxCell id="10" value="InterValue0" style="whiteSpace=wrap;html=1;" parent="1" vertex="1">
                    <mxGeometry x="1540" y="350" width="230" height="30" as="geometry"/>
                </mxCell>
                <mxCell id="11" value="InterValue1" style="whiteSpace=wrap;html=1;" parent="1" vertex="1">
                    <mxGeometry x="1540" y="390" width="230" height="30" as="geometry"/>
                </mxCell>
                <mxCell id="12" value="InterValue2" style="whiteSpace=wrap;html=1;" parent="1" vertex="1">
                    <mxGeometry x="1540" y="430" width="230" height="30" as="geometry"/>
                </mxCell>
                <mxCell id="13" value="InterValue3" style="whiteSpace=wrap;html=1;" parent="1" vertex="1">
                    <mxGeometry x="1540" y="470" width="230" height="30" as="geometry"/>
                </mxCell>
                <mxCell id="14" value="M" style="whiteSpace=wrap;html=1;" parent="1" vertex="1">
                    <mxGeometry x="160" y="620" width="230" height="30" as="geometry"/>
                </mxCell>
                <mxCell id="15" value="ModAdd" style="whiteSpace=wrap;html=1;" parent="1" vertex="1">
                    <mxGeometry x="930" y="140" width="120" height="60" as="geometry"/>
                </mxCell>
                <mxCell id="16" value="ModAdd" style="whiteSpace=wrap;html=1;" parent="1" vertex="1">
                    <mxGeometry x="930" y="225" width="120" height="60" as="geometry"/>
                </mxCell>
                <mxCell id="17" value="ModAdd" style="whiteSpace=wrap;html=1;" parent="1" vertex="1">
                    <mxGeometry x="930" y="310" width="120" height="60" as="geometry"/>
                </mxCell>
                <mxCell id="18" value="ModAdd" style="whiteSpace=wrap;html=1;" parent="1" vertex="1">
                    <mxGeometry x="930" y="400" width="120" height="60" as="geometry"/>
                </mxCell>
                <mxCell id="19" value="" style="whiteSpace=wrap;html=1;" parent="1" vertex="1">
                    <mxGeometry x="820" y="540" width="335" height="220" as="geometry"/>
                </mxCell>
                <mxCell id="20" value="Mul" style="whiteSpace=wrap;html=1;" parent="1" vertex="1">
                    <mxGeometry x="835" y="560" width="120" height="180" as="geometry"/>
                </mxCell>
                <mxCell id="21" value="ModQ" style="whiteSpace=wrap;html=1;" parent="1" vertex="1">
                    <mxGeometry x="995" y="560" width="120" height="180" as="geometry"/>
                </mxCell>
                <mxCell id="22" value="reg" style="whiteSpace=wrap;html=1;" parent="1" vertex="1">
                    <mxGeometry x="965" y="545" width="20" height="210" as="geometry"/>
                </mxCell>
                <mxCell id="23" value="reg" style="whiteSpace=wrap;html=1;" parent="1" vertex="1">
                    <mxGeometry x="1125" y="545" width="20" height="210" as="geometry"/>
                </mxCell>
                <mxCell id="44" style="edgeStyle=none;html=1;exitX=0.5;exitY=1;exitDx=0;exitDy=0;entryX=0.5;entryY=0;entryDx=0;entryDy=0;" parent="1" source="32" target="33" edge="1">
                    <mxGeometry relative="1" as="geometry"/>
                </mxCell>
                <mxCell id="32" value="S_RESET&lt;br&gt;0" style="ellipse;whiteSpace=wrap;html=1;" parent="1" vertex="1">
                    <mxGeometry x="1690" y="-1290" width="180" height="80" as="geometry"/>
                </mxCell>
                <mxCell id="47" style="edgeStyle=none;html=1;exitX=0.5;exitY=1;exitDx=0;exitDy=0;entryX=0.5;entryY=0;entryDx=0;entryDy=0;" parent="1" source="33" target="34" edge="1">
                    <mxGeometry relative="1" as="geometry"/>
                </mxCell>
                <mxCell id="33" value="S_RECV_M&lt;br&gt;1" style="ellipse;whiteSpace=wrap;html=1;" parent="1" vertex="1">
                    <mxGeometry x="1690" y="-1110" width="180" height="80" as="geometry"/>
                </mxCell>
                <mxCell id="52" style="edgeStyle=none;html=1;exitX=0.5;exitY=1;exitDx=0;exitDy=0;entryX=0.5;entryY=0;entryDx=0;entryDy=0;" parent="1" source="34" target="35" edge="1">
                    <mxGeometry relative="1" as="geometry"/>
                </mxCell>
                <mxCell id="34" value="S_RECV_X&lt;br&gt;2" style="ellipse;whiteSpace=wrap;html=1;" parent="1" vertex="1">
                    <mxGeometry x="1690" y="-920" width="180" height="80" as="geometry"/>
                </mxCell>
                <mxCell id="58" style="edgeStyle=none;html=1;exitX=0.5;exitY=1;exitDx=0;exitDy=0;entryX=0.5;entryY=0;entryDx=0;entryDy=0;" parent="1" source="35" target="36" edge="1">
                    <mxGeometry relative="1" as="geometry"/>
                </mxCell>
                <mxCell id="35" value="S_RECV_Y&lt;br&gt;3" style="ellipse;whiteSpace=wrap;html=1;" parent="1" vertex="1">
                    <mxGeometry x="1690" y="-740" width="180" height="80" as="geometry"/>
                </mxCell>
                <mxCell id="82" style="edgeStyle=none;html=1;exitX=0;exitY=0.5;exitDx=0;exitDy=0;entryX=1;entryY=0.5;entryDx=0;entryDy=0;" parent="1" source="36" target="37" edge="1">
                    <mxGeometry relative="1" as="geometry"/>
                </mxCell>
                <mxCell id="36" value="S_PRECOMP&lt;br&gt;4" style="ellipse;whiteSpace=wrap;html=1;" parent="1" vertex="1">
                    <mxGeometry x="1690" y="-560" width="180" height="80" as="geometry"/>
                </mxCell>
                <mxCell id="97" style="edgeStyle=none;html=1;exitX=0;exitY=0.5;exitDx=0;exitDy=0;entryX=1;entryY=0.5;entryDx=0;entryDy=0;" parent="1" source="37" target="72" edge="1">
                    <mxGeometry relative="1" as="geometry"/>
                </mxCell>
                <mxCell id="109" style="edgeStyle=none;html=1;exitX=0.5;exitY=0;exitDx=0;exitDy=0;entryX=1;entryY=0.5;entryDx=0;entryDy=0;" parent="1" source="37" target="73" edge="1">
                    <mxGeometry relative="1" as="geometry">
                        <Array as="points">
                            <mxPoint x="1430" y="-760"/>
                            <mxPoint x="960" y="-760"/>
                            <mxPoint x="960" y="-520"/>
                        </Array>
                    </mxGeometry>
                </mxCell>
                <mxCell id="37" value="S_DOUBPT&lt;br&gt;5" style="ellipse;whiteSpace=wrap;html=1;" parent="1" vertex="1">
                    <mxGeometry x="1340" y="-560" width="180" height="80" as="geometry"/>
                </mxCell>
                <mxCell id="38" value="" style="edgeStyle=none;orthogonalLoop=1;jettySize=auto;html=1;" parent="1" edge="1">
                    <mxGeometry width="80" relative="1" as="geometry">
                        <mxPoint x="740" y="575" as="sourcePoint"/>
                        <mxPoint x="820" y="575" as="targetPoint"/>
                        <Array as="points"/>
                    </mxGeometry>
                </mxCell>
                <mxCell id="39" value="" style="edgeStyle=none;orthogonalLoop=1;jettySize=auto;html=1;" parent="1" edge="1">
                    <mxGeometry width="80" relative="1" as="geometry">
                        <mxPoint x="740" y="730" as="sourcePoint"/>
                        <mxPoint x="820" y="730" as="targetPoint"/>
                        <Array as="points"/>
                    </mxGeometry>
                </mxCell>
                <mxCell id="40" value="" style="edgeStyle=none;orthogonalLoop=1;jettySize=auto;html=1;" parent="1" edge="1">
                    <mxGeometry width="80" relative="1" as="geometry">
                        <mxPoint x="1155" y="650" as="sourcePoint"/>
                        <mxPoint x="1235" y="650" as="targetPoint"/>
                        <Array as="points"/>
                    </mxGeometry>
                </mxCell>
                <mxCell id="41" value="i_rst == 1" style="whiteSpace=wrap;html=1;fillColor=#60a917;fontColor=#ffffff;strokeColor=#2D7600;" parent="1" vertex="1">
                    <mxGeometry x="1950" y="-1360" width="120" height="30" as="geometry"/>
                </mxCell>
                <mxCell id="42" value="X" style="whiteSpace=wrap;html=1;fillColor=#a20025;fontColor=#ffffff;strokeColor=#6F0000;" parent="1" vertex="1">
                    <mxGeometry x="1950" y="-1330" width="120" height="30" as="geometry"/>
                </mxCell>
                <mxCell id="43" style="edgeStyle=none;html=1;exitX=1;exitY=0.5;exitDx=0;exitDy=0;entryX=0.5;entryY=0;entryDx=0;entryDy=0;" parent="1" source="32" target="32" edge="1">
                    <mxGeometry relative="1" as="geometry">
                        <Array as="points">
                            <mxPoint x="1940" y="-1250"/>
                            <mxPoint x="1940" y="-1400"/>
                            <mxPoint x="1780" y="-1400"/>
                        </Array>
                    </mxGeometry>
                </mxCell>
                <mxCell id="45" value="i_rst == 0" style="whiteSpace=wrap;html=1;fillColor=#60a917;fontColor=#ffffff;strokeColor=#2D7600;" parent="1" vertex="1">
                    <mxGeometry x="1800" y="-1190" width="120" height="30" as="geometry"/>
                </mxCell>
                <mxCell id="46" value="X" style="whiteSpace=wrap;html=1;fillColor=#a20025;fontColor=#ffffff;strokeColor=#6F0000;" parent="1" vertex="1">
                    <mxGeometry x="1800" y="-1160" width="120" height="30" as="geometry"/>
                </mxCell>
                <mxCell id="48" value="ctr == 3 &amp;amp;&amp;amp; io_in_fire" style="whiteSpace=wrap;html=1;fillColor=#60a917;fontColor=#ffffff;strokeColor=#2D7600;" parent="1" vertex="1">
                    <mxGeometry x="1800" y="-1000" width="120" height="30" as="geometry"/>
                </mxCell>
                <mxCell id="49" value="rst_ctr == 1" style="whiteSpace=wrap;html=1;fillColor=#a20025;fontColor=#ffffff;strokeColor=#6F0000;" parent="1" vertex="1">
                    <mxGeometry x="1800" y="-970" width="120" height="30" as="geometry"/>
                </mxCell>
                <mxCell id="50" value="o_in_ready = 1&lt;br&gt;wen_reg4 = io_in_fire&lt;br&gt;incr_ctr = io_in_fire" style="whiteSpace=wrap;html=1;fillColor=#a20025;fontColor=#ffffff;strokeColor=#6F0000;" parent="1" vertex="1">
                    <mxGeometry x="1870" y="-1085" width="120" height="45" as="geometry"/>
                </mxCell>
                <mxCell id="51" value="o_in_ready = 1&lt;br&gt;wen_reg5 = io_in_fire&lt;br&gt;incr_ctr = io_in_fire" style="whiteSpace=wrap;html=1;fillColor=#a20025;fontColor=#ffffff;strokeColor=#6F0000;" parent="1" vertex="1">
                    <mxGeometry x="1870" y="-902.5" width="120" height="45" as="geometry"/>
                </mxCell>
                <mxCell id="53" value="ctr == 3 &amp;amp;&amp;amp; io_in_fire" style="whiteSpace=wrap;html=1;fillColor=#60a917;fontColor=#ffffff;strokeColor=#2D7600;" parent="1" vertex="1">
                    <mxGeometry x="1800" y="-820" width="120" height="30" as="geometry"/>
                </mxCell>
                <mxCell id="54" value="rst_ctr == 1" style="whiteSpace=wrap;html=1;fillColor=#a20025;fontColor=#ffffff;strokeColor=#6F0000;" parent="1" vertex="1">
                    <mxGeometry x="1800" y="-790" width="120" height="30" as="geometry"/>
                </mxCell>
                <mxCell id="55" value="o_in_ready = 1&lt;br&gt;wen_reg6 = io_in_fire&lt;br&gt;incr_ctr = io_in_fire" style="whiteSpace=wrap;html=1;fillColor=#a20025;fontColor=#ffffff;strokeColor=#6F0000;" parent="1" vertex="1">
                    <mxGeometry x="1870" y="-722.5" width="120" height="45" as="geometry"/>
                </mxCell>
                <mxCell id="56" value="ctr == 3 &amp;amp;&amp;amp; io_in_fire" style="whiteSpace=wrap;html=1;fillColor=#60a917;fontColor=#ffffff;strokeColor=#2D7600;" parent="1" vertex="1">
                    <mxGeometry x="1800" y="-640" width="120" height="30" as="geometry"/>
                </mxCell>
                <mxCell id="57" value="rst_ctr == 1" style="whiteSpace=wrap;html=1;fillColor=#a20025;fontColor=#ffffff;strokeColor=#6F0000;" parent="1" vertex="1">
                    <mxGeometry x="1800" y="-610" width="120" height="30" as="geometry"/>
                </mxCell>
                <mxCell id="60" value="" style="shape=trapezoid;perimeter=trapezoidPerimeter;whiteSpace=wrap;html=1;fixedSize=1;direction=south;size=15;" parent="1" vertex="1">
                    <mxGeometry x="720" y="510" width="20" height="120" as="geometry"/>
                </mxCell>
                <mxCell id="61" value="" style="shape=trapezoid;perimeter=trapezoidPerimeter;whiteSpace=wrap;html=1;fixedSize=1;direction=south;size=15;" parent="1" vertex="1">
                    <mxGeometry x="720" y="670" width="20" height="120" as="geometry"/>
                </mxCell>
                <mxCell id="62" value="" style="edgeStyle=none;orthogonalLoop=1;jettySize=auto;html=1;" parent="1" edge="1">
                    <mxGeometry width="80" relative="1" as="geometry">
                        <mxPoint x="640" y="530" as="sourcePoint"/>
                        <mxPoint x="720" y="530" as="targetPoint"/>
                        <Array as="points"/>
                    </mxGeometry>
                </mxCell>
                <mxCell id="63" value="" style="edgeStyle=none;orthogonalLoop=1;jettySize=auto;html=1;" parent="1" edge="1">
                    <mxGeometry width="80" relative="1" as="geometry">
                        <mxPoint x="640" y="690" as="sourcePoint"/>
                        <mxPoint x="720" y="690" as="targetPoint"/>
                        <Array as="points"/>
                    </mxGeometry>
                </mxCell>
                <mxCell id="64" value="Xp" style="text;strokeColor=none;align=center;fillColor=none;html=1;verticalAlign=middle;whiteSpace=wrap;rounded=0;" parent="1" vertex="1">
                    <mxGeometry x="600" y="515" width="60" height="30" as="geometry"/>
                </mxCell>
                <mxCell id="65" value="Yp" style="text;strokeColor=none;align=center;fillColor=none;html=1;verticalAlign=middle;whiteSpace=wrap;rounded=0;" parent="1" vertex="1">
                    <mxGeometry x="616" y="673" width="28" height="30" as="geometry"/>
                </mxCell>
                <mxCell id="67" value="" style="edgeStyle=none;orthogonalLoop=1;jettySize=auto;html=1;entryX=0.119;entryY=1;entryDx=0;entryDy=0;entryPerimeter=0;" parent="1" target="19" edge="1">
                    <mxGeometry width="80" relative="1" as="geometry">
                        <mxPoint x="860" y="1050" as="sourcePoint"/>
                        <mxPoint x="970" y="1000" as="targetPoint"/>
                        <Array as="points"/>
                    </mxGeometry>
                </mxCell>
                <mxCell id="68" value="valid_mul" style="text;strokeColor=none;align=center;fillColor=none;html=1;verticalAlign=middle;whiteSpace=wrap;rounded=0;" parent="1" vertex="1">
                    <mxGeometry x="835" y="1050" width="60" height="30" as="geometry"/>
                </mxCell>
                <mxCell id="70" value="0" style="text;strokeColor=none;align=center;fillColor=none;html=1;verticalAlign=middle;whiteSpace=wrap;rounded=0;" parent="1" vertex="1">
                    <mxGeometry x="720" y="515" width="20" height="30" as="geometry"/>
                </mxCell>
                <mxCell id="71" value="0" style="text;strokeColor=none;align=center;fillColor=none;html=1;verticalAlign=middle;whiteSpace=wrap;rounded=0;" parent="1" vertex="1">
                    <mxGeometry x="720" y="676" width="20" height="30" as="geometry"/>
                </mxCell>
                <mxCell id="102" style="edgeStyle=none;html=1;exitX=0.5;exitY=0;exitDx=0;exitDy=0;entryX=0.5;entryY=0;entryDx=0;entryDy=0;" parent="1" source="72" target="37" edge="1">
                    <mxGeometry relative="1" as="geometry">
                        <Array as="points">
                            <mxPoint x="1085" y="-650"/>
                            <mxPoint x="1430" y="-650"/>
                        </Array>
                    </mxGeometry>
                </mxCell>
                <mxCell id="72" value="S_PTADD&lt;br&gt;6" style="ellipse;whiteSpace=wrap;html=1;" parent="1" vertex="1">
                    <mxGeometry x="995" y="-560" width="180" height="80" as="geometry"/>
                </mxCell>
                <mxCell id="116" style="edgeStyle=none;html=1;exitX=0;exitY=0.5;exitDx=0;exitDy=0;entryX=1;entryY=0.5;entryDx=0;entryDy=0;" parent="1" source="73" target="115" edge="1">
                    <mxGeometry relative="1" as="geometry"/>
                </mxCell>
                <mxCell id="133" style="edgeStyle=none;html=1;exitX=0.5;exitY=0;exitDx=0;exitDy=0;entryX=0.5;entryY=1;entryDx=0;entryDy=0;" parent="1" source="73" target="74" edge="1">
                    <mxGeometry relative="1" as="geometry">
                        <mxPoint x="800" y="-640" as="targetPoint"/>
                    </mxGeometry>
                </mxCell>
                <mxCell id="73" value="S_CAL_INVZ_RR&lt;br&gt;7" style="ellipse;whiteSpace=wrap;html=1;" parent="1" vertex="1">
                    <mxGeometry x="640" y="-560" width="180" height="80" as="geometry"/>
                </mxCell>
                <mxCell id="136" style="edgeStyle=none;html=1;exitX=0.5;exitY=0;exitDx=0;exitDy=0;entryX=0.5;entryY=1;entryDx=0;entryDy=0;" parent="1" source="74" target="75" edge="1">
                    <mxGeometry relative="1" as="geometry"/>
                </mxCell>
                <mxCell id="74" value="S_CAL_XGYG&lt;br&gt;9" style="ellipse;whiteSpace=wrap;html=1;" parent="1" vertex="1">
                    <mxGeometry x="640" y="-900" width="180" height="80" as="geometry"/>
                </mxCell>
                <mxCell id="145" style="edgeStyle=none;html=1;exitX=0.5;exitY=0;exitDx=0;exitDy=0;entryX=0.5;entryY=1;entryDx=0;entryDy=0;" parent="1" source="75" target="76" edge="1">
                    <mxGeometry relative="1" as="geometry"/>
                </mxCell>
                <mxCell id="75" value="S_OUTPUT_X&lt;br&gt;10" style="ellipse;whiteSpace=wrap;html=1;" parent="1" vertex="1">
                    <mxGeometry x="640" y="-1160" width="180" height="80" as="geometry"/>
                </mxCell>
                <mxCell id="148" style="edgeStyle=none;html=1;exitX=0.5;exitY=0;exitDx=0;exitDy=0;entryX=0;entryY=0.5;entryDx=0;entryDy=0;" parent="1" source="76" target="33" edge="1">
                    <mxGeometry relative="1" as="geometry">
                        <Array as="points">
                            <mxPoint x="730" y="-1480"/>
                            <mxPoint x="1190" y="-1480"/>
                            <mxPoint x="1190" y="-1070"/>
                        </Array>
                    </mxGeometry>
                </mxCell>
                <mxCell id="76" value="S_OUTPUT_Y&lt;br&gt;11" style="ellipse;whiteSpace=wrap;html=1;" parent="1" vertex="1">
                    <mxGeometry x="640" y="-1370" width="180" height="80" as="geometry"/>
                </mxCell>
                <mxCell id="84" style="edgeStyle=none;html=1;exitX=1;exitY=0.5;exitDx=0;exitDy=0;entryX=0.5;entryY=1;entryDx=0;entryDy=0;" parent="1" source="36" target="36" edge="1">
                    <mxGeometry relative="1" as="geometry">
                        <Array as="points">
                            <mxPoint x="2040" y="-520"/>
                            <mxPoint x="2040" y="-430"/>
                            <mxPoint x="1780" y="-430"/>
                        </Array>
                    </mxGeometry>
                </mxCell>
                <mxCell id="85" value="ctr == 0" style="whiteSpace=wrap;html=1;fillColor=#60a917;fontColor=#ffffff;strokeColor=#2D7600;" parent="1" vertex="1">
                    <mxGeometry x="2050" y="-560" width="120" height="30" as="geometry"/>
                </mxCell>
                <mxCell id="86" value="sela_mul = reg5(x)&lt;br&gt;selb_mul = reg6(y)&lt;br&gt;en_mul = 1&lt;br&gt;----------------------&lt;br&gt;sela_add = reg6(y)&lt;br&gt;selb_add = reg5(x)&lt;br&gt;sela_sub = reg6(y)&lt;br&gt;selb_sub = reg5(x)&lt;br&gt;--------------------&lt;br&gt;wen_reg6 = 1&lt;br&gt;sel_reg6 = sub_o&lt;br&gt;wen_reg7 = 1&lt;br&gt;sel_reg7 = add_o&lt;br&gt;-------------------&lt;br&gt;incr_ctr = 1" style="whiteSpace=wrap;html=1;fillColor=#a20025;fontColor=#ffffff;strokeColor=#6F0000;" parent="1" vertex="1">
                    <mxGeometry x="2050" y="-530" width="120" height="220" as="geometry"/>
                </mxCell>
                <mxCell id="91" value="ctr == 1" style="whiteSpace=wrap;html=1;fillColor=#60a917;fontColor=#ffffff;strokeColor=#2D7600;" parent="1" vertex="1">
                    <mxGeometry x="2190" y="-560" width="120" height="30" as="geometry"/>
                </mxCell>
                <mxCell id="92" value="wen_reg5 = 1&lt;br&gt;sel_reg5 = mul_o&lt;br&gt;-----------&lt;br&gt;incr_ctr = 1" style="whiteSpace=wrap;html=1;fillColor=#a20025;fontColor=#ffffff;strokeColor=#6F0000;" parent="1" vertex="1">
                    <mxGeometry x="2190" y="-530" width="120" height="90" as="geometry"/>
                </mxCell>
                <mxCell id="93" value="ctr == 2" style="whiteSpace=wrap;html=1;fillColor=#60a917;fontColor=#ffffff;strokeColor=#2D7600;" parent="1" vertex="1">
                    <mxGeometry x="2330" y="-560" width="120" height="30" as="geometry"/>
                </mxCell>
                <mxCell id="94" value="sela_mul = d&lt;br&gt;selb_mul = reg5(Tp)&lt;br&gt;---------------&lt;br&gt;incr_ctr = 1" style="whiteSpace=wrap;html=1;fillColor=#a20025;fontColor=#ffffff;strokeColor=#6F0000;" parent="1" vertex="1">
                    <mxGeometry x="2330" y="-530" width="120" height="90" as="geometry"/>
                </mxCell>
                <mxCell id="95" value="ctr == 3" style="whiteSpace=wrap;html=1;fillColor=#60a917;fontColor=#ffffff;strokeColor=#2D7600;" parent="1" vertex="1">
                    <mxGeometry x="1550" y="-510" width="120" height="30" as="geometry"/>
                </mxCell>
                <mxCell id="96" value="wen_reg5 = 1&lt;br&gt;sel_reg5 = mul_o" style="whiteSpace=wrap;html=1;fillColor=#a20025;fontColor=#ffffff;strokeColor=#6F0000;" parent="1" vertex="1">
                    <mxGeometry x="1550" y="-480" width="120" height="50" as="geometry"/>
                </mxCell>
                <mxCell id="98" value="ctr == 9 &amp;amp;&amp;amp;&lt;br&gt;M[bit_idx] == 1" style="whiteSpace=wrap;html=1;fillColor=#60a917;fontColor=#ffffff;strokeColor=#2D7600;" parent="1" vertex="1">
                    <mxGeometry x="1200" y="-490" width="120" height="40" as="geometry"/>
                </mxCell>
                <mxCell id="100" value="do what we need to do" style="whiteSpace=wrap;html=1;fillColor=#a20025;fontColor=#ffffff;strokeColor=#6F0000;" parent="1" vertex="1">
                    <mxGeometry x="1380" y="-480" width="120" height="50" as="geometry"/>
                </mxCell>
                <mxCell id="101" value="do what we need to do" style="whiteSpace=wrap;html=1;fillColor=#a20025;fontColor=#ffffff;strokeColor=#6F0000;" parent="1" vertex="1">
                    <mxGeometry x="1020" y="-480" width="120" height="50" as="geometry"/>
                </mxCell>
                <mxCell id="103" value="ctr == 8" style="whiteSpace=wrap;html=1;fillColor=#60a917;fontColor=#ffffff;strokeColor=#2D7600;" parent="1" vertex="1">
                    <mxGeometry x="1155" y="-700" width="120" height="20" as="geometry"/>
                </mxCell>
                <mxCell id="104" value="incr_iter = 1&lt;br&gt;rst_ctr = 1" style="whiteSpace=wrap;html=1;fillColor=#a20025;fontColor=#ffffff;strokeColor=#6F0000;" parent="1" vertex="1">
                    <mxGeometry x="1155" y="-680" width="120" height="30" as="geometry"/>
                </mxCell>
                <mxCell id="105" value="rst_ctr = 1" style="whiteSpace=wrap;html=1;fillColor=#a20025;fontColor=#ffffff;strokeColor=#6F0000;" parent="1" vertex="1">
                    <mxGeometry x="1200" y="-450" width="120" height="30" as="geometry"/>
                </mxCell>
                <mxCell id="106" style="edgeStyle=none;html=1;exitX=0;exitY=0.5;exitDx=0;exitDy=0;entryX=0.5;entryY=0;entryDx=0;entryDy=0;" parent="1" source="37" target="37" edge="1">
                    <mxGeometry relative="1" as="geometry">
                        <Array as="points">
                            <mxPoint x="1240" y="-520"/>
                            <mxPoint x="1240" y="-620"/>
                            <mxPoint x="1430" y="-620"/>
                        </Array>
                    </mxGeometry>
                </mxCell>
                <mxCell id="107" value="ctr == 9 &amp;amp;&amp;amp;&lt;br&gt;M[bit_idx] == 0" style="whiteSpace=wrap;html=1;fillColor=#60a917;fontColor=#ffffff;strokeColor=#2D7600;" parent="1" vertex="1">
                    <mxGeometry x="1175" y="-610" width="120" height="40" as="geometry"/>
                </mxCell>
                <mxCell id="108" value="incr_iter = 1&lt;br&gt;rst_ctr = 1" style="whiteSpace=wrap;html=1;fillColor=#a20025;fontColor=#ffffff;strokeColor=#6F0000;" parent="1" vertex="1">
                    <mxGeometry x="1175" y="-570" width="120" height="30" as="geometry"/>
                </mxCell>
                <mxCell id="110" value="iter == 255" style="whiteSpace=wrap;html=1;fillColor=#60a917;fontColor=#ffffff;strokeColor=#2D7600;" parent="1" vertex="1">
                    <mxGeometry x="1220" y="-790" width="120" height="20" as="geometry"/>
                </mxCell>
                <mxCell id="111" value="rst_iter = 1&lt;br&gt;set_r_one = 1" style="whiteSpace=wrap;html=1;fillColor=#a20025;fontColor=#ffffff;strokeColor=#6F0000;" parent="1" vertex="1">
                    <mxGeometry x="1220" y="-770" width="120" height="40" as="geometry"/>
                </mxCell>
                <mxCell id="113" value="ctr == 1 &amp;amp;&amp;amp;&amp;nbsp;&lt;br&gt;Q_MINUS_2[iter] == 1" style="whiteSpace=wrap;html=1;fillColor=#60a917;fontColor=#ffffff;strokeColor=#2D7600;" parent="1" vertex="1">
                    <mxGeometry x="470" y="-510" width="130" height="30" as="geometry"/>
                </mxCell>
                <mxCell id="114" value="wen_reg3 = valid_mul&lt;br&gt;sel_reg3 = mul&lt;br&gt;-----------------&lt;br&gt;rst_ctr = 1" style="whiteSpace=wrap;html=1;fillColor=#a20025;fontColor=#ffffff;strokeColor=#6F0000;" parent="1" vertex="1">
                    <mxGeometry x="470" y="-480" width="130" height="60" as="geometry"/>
                </mxCell>
                <mxCell id="126" style="edgeStyle=none;html=1;exitX=0.5;exitY=0;exitDx=0;exitDy=0;entryX=0.5;entryY=0;entryDx=0;entryDy=0;" parent="1" source="115" target="73" edge="1">
                    <mxGeometry relative="1" as="geometry">
                        <Array as="points">
                            <mxPoint x="330" y="-720"/>
                            <mxPoint x="730" y="-720"/>
                        </Array>
                    </mxGeometry>
                </mxCell>
                <mxCell id="115" value="S_CAL_INVZ_RB&lt;br&gt;8" style="ellipse;whiteSpace=wrap;html=1;" parent="1" vertex="1">
                    <mxGeometry x="240" y="-560" width="180" height="80" as="geometry"/>
                </mxCell>
                <mxCell id="117" style="edgeStyle=none;html=1;exitX=1;exitY=1;exitDx=0;exitDy=0;entryX=0;entryY=1;entryDx=0;entryDy=0;" parent="1" source="73" target="73" edge="1">
                    <mxGeometry relative="1" as="geometry">
                        <Array as="points">
                            <mxPoint x="794" y="-370"/>
                            <mxPoint x="666" y="-370"/>
                        </Array>
                    </mxGeometry>
                </mxCell>
                <mxCell id="118" value="ctr == 0" style="whiteSpace=wrap;html=1;fillColor=#60a917;fontColor=#ffffff;strokeColor=#2D7600;" parent="1" vertex="1">
                    <mxGeometry x="670" y="-360" width="120" height="30" as="geometry"/>
                </mxCell>
                <mxCell id="119" value="sela_mul = reg3(r)&lt;br&gt;selb_mul = reg3(r)&lt;br&gt;en_mul = 1&lt;br&gt;------------&lt;br&gt;incr_ctr = 1" style="whiteSpace=wrap;html=1;fillColor=#a20025;fontColor=#ffffff;strokeColor=#6F0000;" parent="1" vertex="1">
                    <mxGeometry x="670" y="-330" width="120" height="70" as="geometry"/>
                </mxCell>
                <mxCell id="123" style="edgeStyle=none;html=1;exitX=0;exitY=0.5;exitDx=0;exitDy=0;entryX=0.5;entryY=0;entryDx=0;entryDy=0;" parent="1" source="73" target="73" edge="1">
                    <mxGeometry relative="1" as="geometry">
                        <Array as="points">
                            <mxPoint x="520" y="-520"/>
                            <mxPoint x="520" y="-620"/>
                            <mxPoint x="730" y="-620"/>
                        </Array>
                    </mxGeometry>
                </mxCell>
                <mxCell id="124" value="ctr == 1 &amp;amp;&amp;amp;&lt;br&gt;Q_MINUS_2[iter] == 0" style="whiteSpace=wrap;html=1;fillColor=#60a917;fontColor=#ffffff;strokeColor=#2D7600;" parent="1" vertex="1">
                    <mxGeometry x="470" y="-620" width="130" height="30" as="geometry"/>
                </mxCell>
                <mxCell id="125" value="wen_reg3 = valid_mul&lt;br&gt;sel_reg3 = mul&lt;br&gt;incr_iter = 1&lt;br&gt;rst_ctr = 1" style="whiteSpace=wrap;html=1;fillColor=#a20025;fontColor=#ffffff;strokeColor=#6F0000;" parent="1" vertex="1">
                    <mxGeometry x="470" y="-590" width="130" height="60" as="geometry"/>
                </mxCell>
                <mxCell id="127" value="ctr == 1" style="whiteSpace=wrap;html=1;fillColor=#60a917;fontColor=#ffffff;strokeColor=#2D7600;" parent="1" vertex="1">
                    <mxGeometry x="380" y="-750" width="120" height="30" as="geometry"/>
                </mxCell>
                <mxCell id="128" value="wen_reg3 = valid_mul&lt;br&gt;sel_reg3 = mul&lt;br&gt;------------------&lt;br&gt;incr_iter = 1&lt;br&gt;rst_ctr = 1" style="whiteSpace=wrap;html=1;fillColor=#a20025;fontColor=#ffffff;strokeColor=#6F0000;" parent="1" vertex="1">
                    <mxGeometry x="380" y="-720" width="120" height="80" as="geometry"/>
                </mxCell>
                <mxCell id="131" value="ctr == 0" style="whiteSpace=wrap;html=1;fillColor=#60a917;fontColor=#ffffff;strokeColor=#2D7600;" parent="1" vertex="1">
                    <mxGeometry x="270" y="-480" width="120" height="30" as="geometry"/>
                </mxCell>
                <mxCell id="132" value="sela_mul = reg3(r)&lt;br&gt;selb_mul = reg2(b)&lt;br&gt;en_mul = 1&lt;br&gt;------------&lt;br&gt;incr_ctr = 1" style="whiteSpace=wrap;html=1;fillColor=#a20025;fontColor=#ffffff;strokeColor=#6F0000;" parent="1" vertex="1">
                    <mxGeometry x="270" y="-450" width="120" height="100" as="geometry"/>
                </mxCell>
                <mxCell id="134" value="iter == 255" style="whiteSpace=wrap;html=1;fillColor=#60a917;fontColor=#ffffff;strokeColor=#2D7600;" parent="1" vertex="1">
                    <mxGeometry x="670" y="-790" width="120" height="20" as="geometry"/>
                </mxCell>
                <mxCell id="135" value="rst_iter = 1" style="whiteSpace=wrap;html=1;fillColor=#a20025;fontColor=#ffffff;strokeColor=#6F0000;" parent="1" vertex="1">
                    <mxGeometry x="670" y="-770" width="120" height="30" as="geometry"/>
                </mxCell>
                <mxCell id="138" value="ctr == 0" style="whiteSpace=wrap;html=1;fillColor=#60a917;fontColor=#ffffff;strokeColor=#2D7600;" parent="1" vertex="1">
                    <mxGeometry x="120" y="-940" width="120" height="20" as="geometry"/>
                </mxCell>
                <mxCell id="139" value="sela_mul = reg0&lt;br&gt;selb_mul = reg3&lt;br&gt;en_mul = 1&lt;br&gt;-----------------&lt;br&gt;incr_ctr = 1" style="whiteSpace=wrap;html=1;fillColor=#a20025;fontColor=#ffffff;strokeColor=#6F0000;" parent="1" vertex="1">
                    <mxGeometry x="120" y="-920" width="120" height="85" as="geometry"/>
                </mxCell>
                <mxCell id="140" value="ctr == 1" style="whiteSpace=wrap;html=1;fillColor=#60a917;fontColor=#ffffff;strokeColor=#2D7600;" parent="1" vertex="1">
                    <mxGeometry x="240" y="-940" width="120" height="20" as="geometry"/>
                </mxCell>
                <mxCell id="141" value="sela_mul = reg1&lt;br&gt;selb_mul = reg3&lt;br&gt;en_mul = 1&lt;br&gt;-----------------&lt;br&gt;wen_reg0 = valid_mul&lt;br&gt;sel_reg0 = mul&lt;br&gt;-----------------&lt;br&gt;incr_ctr = 1" style="whiteSpace=wrap;html=1;fillColor=#a20025;fontColor=#ffffff;strokeColor=#6F0000;" parent="1" vertex="1">
                    <mxGeometry x="240" y="-920" width="120" height="120" as="geometry"/>
                </mxCell>
                <mxCell id="142" value="ctr == 3" style="whiteSpace=wrap;html=1;fillColor=#60a917;fontColor=#ffffff;strokeColor=#2D7600;" parent="1" vertex="1">
                    <mxGeometry x="740" y="-1037.5" width="120" height="20" as="geometry"/>
                </mxCell>
                <mxCell id="143" value="sela_sub = Q&lt;br&gt;selb_sub = reg1&lt;br&gt;-------------&lt;br&gt;wen_reg1 = reg1[0]&lt;br&gt;sel_reg1 = sub&lt;br&gt;------------&lt;br&gt;rst_ctr = 1" style="whiteSpace=wrap;html=1;fillColor=#a20025;fontColor=#ffffff;strokeColor=#6F0000;" parent="1" vertex="1">
                    <mxGeometry x="740" y="-1017.5" width="120" height="107.5" as="geometry"/>
                </mxCell>
                <mxCell id="144" value="ctr == 3 &amp;amp;&amp;amp;&amp;nbsp;&lt;br&gt;io_out_fire == 1" style="whiteSpace=wrap;html=1;fillColor=#60a917;fontColor=#ffffff;strokeColor=#2D7600;" parent="1" vertex="1">
                    <mxGeometry x="740" y="-1240" width="120" height="30" as="geometry"/>
                </mxCell>
                <mxCell id="146" value="&lt;div&gt;o_out_valid = 1&lt;/div&gt;&lt;div&gt;incr_ctr = io_out_fire&lt;/div&gt;&lt;div&gt;sel_data = 0 (reg0)&lt;/div&gt;" style="whiteSpace=wrap;html=1;fillColor=#a20025;fontColor=#ffffff;strokeColor=#6F0000;" parent="1" vertex="1">
                    <mxGeometry x="820" y="-1150" width="120" height="60" as="geometry"/>
                </mxCell>
                <mxCell id="147" value="&lt;div&gt;o_out_valid = 1&lt;/div&gt;&lt;div&gt;incr_ctr = io_out_fire&lt;/div&gt;&lt;div&gt;sel_data = 1 (reg1)&lt;/div&gt;" style="whiteSpace=wrap;html=1;fillColor=#a20025;fontColor=#ffffff;strokeColor=#6F0000;" parent="1" vertex="1">
                    <mxGeometry x="820" y="-1360" width="120" height="60" as="geometry"/>
                </mxCell>
                <mxCell id="149" value="ctr == 3 &amp;amp;&amp;amp;&amp;nbsp;&lt;br&gt;io_out_fire == 1" style="whiteSpace=wrap;html=1;fillColor=#60a917;fontColor=#ffffff;strokeColor=#2D7600;" parent="1" vertex="1">
                    <mxGeometry x="940" y="-1490" width="120" height="30" as="geometry"/>
                </mxCell>
                <mxCell id="151" value="rst_ctr == 1" style="whiteSpace=wrap;html=1;fillColor=#a20025;fontColor=#ffffff;strokeColor=#6F0000;" parent="1" vertex="1">
                    <mxGeometry x="740" y="-1210" width="120" height="30" as="geometry"/>
                </mxCell>
                <mxCell id="152" value="rst_ctr == 1&lt;br&gt;rst_pointR = 1" style="whiteSpace=wrap;html=1;fillColor=#a20025;fontColor=#ffffff;strokeColor=#6F0000;" parent="1" vertex="1">
                    <mxGeometry x="940" y="-1460" width="120" height="30" as="geometry"/>
                </mxCell>
                <mxCell id="153" style="edgeStyle=none;html=1;exitX=0;exitY=1;exitDx=0;exitDy=0;entryX=0;entryY=0;entryDx=0;entryDy=0;" parent="1" source="74" target="74" edge="1">
                    <mxGeometry relative="1" as="geometry">
                        <Array as="points">
                            <mxPoint x="490" y="-832"/>
                            <mxPoint x="490" y="-890"/>
                        </Array>
                    </mxGeometry>
                </mxCell>
                <mxCell id="154" value="ctr == 2" style="whiteSpace=wrap;html=1;fillColor=#60a917;fontColor=#ffffff;strokeColor=#2D7600;" parent="1" vertex="1">
                    <mxGeometry x="360" y="-940" width="120" height="20" as="geometry"/>
                </mxCell>
                <mxCell id="155" value="sela_sub = Q&lt;br&gt;selb_sub = reg0&lt;br&gt;-----------------&lt;br&gt;wen_reg0 = reg0[0]&lt;br&gt;sel_reg0 = sub&lt;br&gt;wen_reg1 = valid_mul&lt;br&gt;sel_reg1 = mul&lt;br&gt;-----------------&lt;br&gt;incr_ctr = 1" style="whiteSpace=wrap;html=1;fillColor=#a20025;fontColor=#ffffff;strokeColor=#6F0000;" parent="1" vertex="1">
                    <mxGeometry x="360" y="-920" width="120" height="130" as="geometry"/>
                </mxCell>
                <mxCell id="156" style="edgeStyle=none;html=1;exitX=0.5;exitY=1;exitDx=0;exitDy=0;entryX=0.5;entryY=0;entryDx=0;entryDy=0;" parent="1" source="157" target="159" edge="1">
                    <mxGeometry relative="1" as="geometry"/>
                </mxCell>
                <mxCell id="157" value="S_RESET&lt;br&gt;0" style="ellipse;whiteSpace=wrap;html=1;" parent="1" vertex="1">
                    <mxGeometry x="3830" y="60" width="180" height="80" as="geometry"/>
                </mxCell>
                <mxCell id="158" style="edgeStyle=none;html=1;exitX=0.5;exitY=1;exitDx=0;exitDy=0;entryX=0.5;entryY=0;entryDx=0;entryDy=0;" parent="1" source="159" target="161" edge="1">
                    <mxGeometry relative="1" as="geometry"/>
                </mxCell>
                <mxCell id="159" value="S_RECV_M&lt;br&gt;1" style="ellipse;whiteSpace=wrap;html=1;" parent="1" vertex="1">
                    <mxGeometry x="3830" y="240" width="180" height="80" as="geometry"/>
                </mxCell>
                <mxCell id="160" style="edgeStyle=none;html=1;exitX=0.5;exitY=1;exitDx=0;exitDy=0;entryX=0.5;entryY=0;entryDx=0;entryDy=0;" parent="1" source="161" target="163" edge="1">
                    <mxGeometry relative="1" as="geometry"/>
                </mxCell>
                <mxCell id="161" value="S_RECV_X&lt;br&gt;2" style="ellipse;whiteSpace=wrap;html=1;" parent="1" vertex="1">
                    <mxGeometry x="3830" y="430" width="180" height="80" as="geometry"/>
                </mxCell>
                <mxCell id="162" style="edgeStyle=none;html=1;exitX=0.5;exitY=1;exitDx=0;exitDy=0;entryX=0.5;entryY=0;entryDx=0;entryDy=0;" parent="1" source="163" target="165" edge="1">
                    <mxGeometry relative="1" as="geometry"/>
                </mxCell>
                <mxCell id="163" value="S_RECV_Y&lt;br&gt;3" style="ellipse;whiteSpace=wrap;html=1;" parent="1" vertex="1">
                    <mxGeometry x="3830" y="610" width="180" height="80" as="geometry"/>
                </mxCell>
                <mxCell id="164" style="edgeStyle=none;html=1;exitX=0;exitY=0.5;exitDx=0;exitDy=0;entryX=1;entryY=0.5;entryDx=0;entryDy=0;" parent="1" source="165" target="168" edge="1">
                    <mxGeometry relative="1" as="geometry"/>
                </mxCell>
                <mxCell id="165" value="S_PRECOMP&lt;br&gt;4" style="ellipse;whiteSpace=wrap;html=1;" parent="1" vertex="1">
                    <mxGeometry x="3830" y="790" width="180" height="80" as="geometry"/>
                </mxCell>
                <mxCell id="166" style="edgeStyle=none;html=1;exitX=0;exitY=0.5;exitDx=0;exitDy=0;entryX=1;entryY=0.5;entryDx=0;entryDy=0;" parent="1" source="168" target="184" edge="1">
                    <mxGeometry relative="1" as="geometry"/>
                </mxCell>
                <mxCell id="167" style="edgeStyle=none;html=1;exitX=0.5;exitY=0;exitDx=0;exitDy=0;entryX=1;entryY=0.5;entryDx=0;entryDy=0;" parent="1" source="168" edge="1">
                    <mxGeometry relative="1" as="geometry">
                        <Array as="points">
                            <mxPoint x="3570" y="590"/>
                            <mxPoint x="3100" y="590"/>
                            <mxPoint x="3100" y="830"/>
                        </Array>
                        <mxPoint x="2960" y="830" as="targetPoint"/>
                    </mxGeometry>
                </mxCell>
                <mxCell id="168" value="S_DOUBPT&lt;br&gt;5" style="ellipse;whiteSpace=wrap;html=1;" parent="1" vertex="1">
                    <mxGeometry x="3480" y="790" width="180" height="80" as="geometry"/>
                </mxCell>
                <mxCell id="169" value="i_rst == 1" style="whiteSpace=wrap;html=1;fillColor=#60a917;fontColor=#ffffff;strokeColor=#2D7600;" parent="1" vertex="1">
                    <mxGeometry x="4090" y="-10" width="120" height="30" as="geometry"/>
                </mxCell>
                <mxCell id="170" value="X" style="whiteSpace=wrap;html=1;fillColor=#a20025;fontColor=#ffffff;strokeColor=#6F0000;" parent="1" vertex="1">
                    <mxGeometry x="4090" y="20" width="120" height="30" as="geometry"/>
                </mxCell>
                <mxCell id="171" style="edgeStyle=none;html=1;exitX=1;exitY=0.5;exitDx=0;exitDy=0;entryX=0.5;entryY=0;entryDx=0;entryDy=0;" parent="1" source="157" target="157" edge="1">
                    <mxGeometry relative="1" as="geometry">
                        <Array as="points">
                            <mxPoint x="4080" y="100"/>
                            <mxPoint x="4080" y="-50"/>
                            <mxPoint x="3920" y="-50"/>
                        </Array>
                    </mxGeometry>
                </mxCell>
                <mxCell id="172" value="i_rst == 0" style="whiteSpace=wrap;html=1;fillColor=#60a917;fontColor=#ffffff;strokeColor=#2D7600;" parent="1" vertex="1">
                    <mxGeometry x="3940" y="160" width="120" height="30" as="geometry"/>
                </mxCell>
                <mxCell id="173" value="X" style="whiteSpace=wrap;html=1;fillColor=#a20025;fontColor=#ffffff;strokeColor=#6F0000;" parent="1" vertex="1">
                    <mxGeometry x="3940" y="190" width="120" height="30" as="geometry"/>
                </mxCell>
                <mxCell id="174" value="ctr == 3 &amp;amp;&amp;amp; io_in_fire" style="whiteSpace=wrap;html=1;fillColor=#60a917;fontColor=#ffffff;strokeColor=#2D7600;" parent="1" vertex="1">
                    <mxGeometry x="3940" y="350" width="120" height="30" as="geometry"/>
                </mxCell>
                <mxCell id="175" value="rst_ctr == 1" style="whiteSpace=wrap;html=1;fillColor=#a20025;fontColor=#ffffff;strokeColor=#6F0000;" parent="1" vertex="1">
                    <mxGeometry x="3940" y="380" width="120" height="30" as="geometry"/>
                </mxCell>
                <mxCell id="176" value="o_in_ready = 1&lt;br&gt;wen_reg4 = io_in_fire&lt;br&gt;incr_ctr = io_in_fire" style="whiteSpace=wrap;html=1;fillColor=#a20025;fontColor=#ffffff;strokeColor=#6F0000;" parent="1" vertex="1">
                    <mxGeometry x="4010" y="265" width="120" height="45" as="geometry"/>
                </mxCell>
                <mxCell id="177" value="o_in_ready = 1&lt;br&gt;wen_reg5 = io_in_fire&lt;br&gt;incr_ctr = io_in_fire" style="whiteSpace=wrap;html=1;fillColor=#a20025;fontColor=#ffffff;strokeColor=#6F0000;" parent="1" vertex="1">
                    <mxGeometry x="4010" y="447.5" width="120" height="45" as="geometry"/>
                </mxCell>
                <mxCell id="178" value="ctr == 3 &amp;amp;&amp;amp; io_in_fire" style="whiteSpace=wrap;html=1;fillColor=#60a917;fontColor=#ffffff;strokeColor=#2D7600;" parent="1" vertex="1">
                    <mxGeometry x="3940" y="530" width="120" height="30" as="geometry"/>
                </mxCell>
                <mxCell id="179" value="rst_ctr == 1" style="whiteSpace=wrap;html=1;fillColor=#a20025;fontColor=#ffffff;strokeColor=#6F0000;" parent="1" vertex="1">
                    <mxGeometry x="3940" y="560" width="120" height="30" as="geometry"/>
                </mxCell>
                <mxCell id="180" value="o_in_ready = 1&lt;br&gt;wen_reg6 = io_in_fire&lt;br&gt;incr_ctr = io_in_fire" style="whiteSpace=wrap;html=1;fillColor=#a20025;fontColor=#ffffff;strokeColor=#6F0000;" parent="1" vertex="1">
                    <mxGeometry x="4010" y="627.5" width="120" height="45" as="geometry"/>
                </mxCell>
                <mxCell id="181" value="ctr == 3 &amp;amp;&amp;amp; io_in_fire" style="whiteSpace=wrap;html=1;fillColor=#60a917;fontColor=#ffffff;strokeColor=#2D7600;" parent="1" vertex="1">
                    <mxGeometry x="3940" y="710" width="120" height="30" as="geometry"/>
                </mxCell>
                <mxCell id="182" value="rst_ctr == 1" style="whiteSpace=wrap;html=1;fillColor=#a20025;fontColor=#ffffff;strokeColor=#6F0000;" parent="1" vertex="1">
                    <mxGeometry x="3940" y="740" width="120" height="30" as="geometry"/>
                </mxCell>
                <mxCell id="183" style="edgeStyle=none;html=1;exitX=0.5;exitY=0;exitDx=0;exitDy=0;entryX=0.5;entryY=0;entryDx=0;entryDy=0;" parent="1" source="184" target="168" edge="1">
                    <mxGeometry relative="1" as="geometry">
                        <Array as="points">
                            <mxPoint x="3225" y="700"/>
                            <mxPoint x="3570" y="700"/>
                        </Array>
                    </mxGeometry>
                </mxCell>
                <mxCell id="184" value="S_PTADD&lt;br&gt;6" style="ellipse;whiteSpace=wrap;html=1;" parent="1" vertex="1">
                    <mxGeometry x="3135" y="790" width="180" height="80" as="geometry"/>
                </mxCell>
                <mxCell id="188" style="edgeStyle=none;html=1;exitX=0.5;exitY=0;exitDx=0;exitDy=0;entryX=0.5;entryY=1;entryDx=0;entryDy=0;" parent="1" source="189" target="191" edge="1">
                    <mxGeometry relative="1" as="geometry"/>
                </mxCell>
                <mxCell id="189" value="S_CAL_XGYG&lt;br&gt;10" style="ellipse;whiteSpace=wrap;html=1;" parent="1" vertex="1">
                    <mxGeometry x="2780" y="450" width="180" height="80" as="geometry"/>
                </mxCell>
                <mxCell id="190" style="edgeStyle=none;html=1;exitX=0.5;exitY=0;exitDx=0;exitDy=0;entryX=0.5;entryY=1;entryDx=0;entryDy=0;" parent="1" source="191" target="193" edge="1">
                    <mxGeometry relative="1" as="geometry"/>
                </mxCell>
                <mxCell id="191" value="S_OUTPUT_X&lt;br&gt;11" style="ellipse;whiteSpace=wrap;html=1;" parent="1" vertex="1">
                    <mxGeometry x="2780" y="190" width="180" height="80" as="geometry"/>
                </mxCell>
                <mxCell id="192" style="edgeStyle=none;html=1;exitX=0.5;exitY=0;exitDx=0;exitDy=0;entryX=0;entryY=0.5;entryDx=0;entryDy=0;" parent="1" source="193" target="159" edge="1">
                    <mxGeometry relative="1" as="geometry">
                        <Array as="points">
                            <mxPoint x="2870" y="-130"/>
                            <mxPoint x="3330" y="-130"/>
                            <mxPoint x="3330" y="280"/>
                        </Array>
                    </mxGeometry>
                </mxCell>
                <mxCell id="193" value="S_OUTPUT_Y&lt;br&gt;12" style="ellipse;whiteSpace=wrap;html=1;" parent="1" vertex="1">
                    <mxGeometry x="2780" y="-20" width="180" height="80" as="geometry"/>
                </mxCell>
                <mxCell id="194" style="edgeStyle=none;html=1;exitX=1;exitY=0.5;exitDx=0;exitDy=0;entryX=0.5;entryY=1;entryDx=0;entryDy=0;" parent="1" source="165" target="165" edge="1">
                    <mxGeometry relative="1" as="geometry">
                        <Array as="points">
                            <mxPoint x="4180" y="830"/>
                            <mxPoint x="4180" y="920"/>
                            <mxPoint x="3920" y="920"/>
                        </Array>
                    </mxGeometry>
                </mxCell>
                <mxCell id="195" value="ctr == 0" style="whiteSpace=wrap;html=1;fillColor=#60a917;fontColor=#ffffff;strokeColor=#2D7600;" parent="1" vertex="1">
                    <mxGeometry x="4190" y="790" width="120" height="30" as="geometry"/>
                </mxCell>
                <mxCell id="196" value="sela_mul = reg5(x)&lt;br&gt;selb_mul = reg6(y)&lt;br&gt;en_mul = 1&lt;br&gt;----------------------&lt;br&gt;sela_add = reg6(y)&lt;br&gt;selb_add = reg5(x)&lt;br&gt;sela_sub = reg6(y)&lt;br&gt;selb_sub = reg5(x)&lt;br&gt;--------------------&lt;br&gt;wen_reg6 = 1&lt;br&gt;sel_reg6 = sub_o&lt;br&gt;wen_reg7 = 1&lt;br&gt;sel_reg7 = add_o&lt;br&gt;-------------------&lt;br&gt;incr_ctr = 1" style="whiteSpace=wrap;html=1;fillColor=#a20025;fontColor=#ffffff;strokeColor=#6F0000;" parent="1" vertex="1">
                    <mxGeometry x="4190" y="820" width="120" height="220" as="geometry"/>
                </mxCell>
                <mxCell id="197" value="ctr == 1" style="whiteSpace=wrap;html=1;fillColor=#60a917;fontColor=#ffffff;strokeColor=#2D7600;" parent="1" vertex="1">
                    <mxGeometry x="4330" y="790" width="120" height="30" as="geometry"/>
                </mxCell>
                <mxCell id="198" value="wen_reg5 = 1&lt;br&gt;sel_reg5 = mul_o&lt;br&gt;-----------&lt;br&gt;incr_ctr = 1" style="whiteSpace=wrap;html=1;fillColor=#a20025;fontColor=#ffffff;strokeColor=#6F0000;" parent="1" vertex="1">
                    <mxGeometry x="4330" y="820" width="120" height="90" as="geometry"/>
                </mxCell>
                <mxCell id="199" value="ctr == 2" style="whiteSpace=wrap;html=1;fillColor=#60a917;fontColor=#ffffff;strokeColor=#2D7600;" parent="1" vertex="1">
                    <mxGeometry x="4470" y="790" width="120" height="30" as="geometry"/>
                </mxCell>
                <mxCell id="200" value="sela_mul = d&lt;br&gt;selb_mul = reg5(Tp)&lt;br&gt;---------------&lt;br&gt;incr_ctr = 1" style="whiteSpace=wrap;html=1;fillColor=#a20025;fontColor=#ffffff;strokeColor=#6F0000;" parent="1" vertex="1">
                    <mxGeometry x="4470" y="820" width="120" height="90" as="geometry"/>
                </mxCell>
                <mxCell id="201" value="ctr == 3" style="whiteSpace=wrap;html=1;fillColor=#60a917;fontColor=#ffffff;strokeColor=#2D7600;" parent="1" vertex="1">
                    <mxGeometry x="3690" y="840" width="120" height="30" as="geometry"/>
                </mxCell>
                <mxCell id="202" value="wen_reg5 = 1&lt;br&gt;sel_reg5 = mul_o" style="whiteSpace=wrap;html=1;fillColor=#a20025;fontColor=#ffffff;strokeColor=#6F0000;" parent="1" vertex="1">
                    <mxGeometry x="3690" y="870" width="120" height="50" as="geometry"/>
                </mxCell>
                <mxCell id="203" value="ctr == 9 &amp;amp;&amp;amp;&lt;br&gt;M[bit_idx] == 1" style="whiteSpace=wrap;html=1;fillColor=#60a917;fontColor=#ffffff;strokeColor=#2D7600;" parent="1" vertex="1">
                    <mxGeometry x="3340" y="860" width="120" height="40" as="geometry"/>
                </mxCell>
                <mxCell id="204" value="do what we need to do" style="whiteSpace=wrap;html=1;fillColor=#a20025;fontColor=#ffffff;strokeColor=#6F0000;" parent="1" vertex="1">
                    <mxGeometry x="3520" y="870" width="120" height="50" as="geometry"/>
                </mxCell>
                <mxCell id="205" value="do what we need to do" style="whiteSpace=wrap;html=1;fillColor=#a20025;fontColor=#ffffff;strokeColor=#6F0000;" parent="1" vertex="1">
                    <mxGeometry x="3160" y="870" width="120" height="50" as="geometry"/>
                </mxCell>
                <mxCell id="206" value="ctr == 8" style="whiteSpace=wrap;html=1;fillColor=#60a917;fontColor=#ffffff;strokeColor=#2D7600;" parent="1" vertex="1">
                    <mxGeometry x="3295" y="650" width="120" height="20" as="geometry"/>
                </mxCell>
                <mxCell id="207" value="incr_iter = 1&lt;br&gt;rst_ctr = 1" style="whiteSpace=wrap;html=1;fillColor=#a20025;fontColor=#ffffff;strokeColor=#6F0000;" parent="1" vertex="1">
                    <mxGeometry x="3295" y="670" width="120" height="30" as="geometry"/>
                </mxCell>
                <mxCell id="208" value="rst_ctr = 1" style="whiteSpace=wrap;html=1;fillColor=#a20025;fontColor=#ffffff;strokeColor=#6F0000;" parent="1" vertex="1">
                    <mxGeometry x="3340" y="900" width="120" height="30" as="geometry"/>
                </mxCell>
                <mxCell id="209" style="edgeStyle=none;html=1;exitX=0;exitY=0.5;exitDx=0;exitDy=0;entryX=0.5;entryY=0;entryDx=0;entryDy=0;" parent="1" source="168" target="168" edge="1">
                    <mxGeometry relative="1" as="geometry">
                        <Array as="points">
                            <mxPoint x="3380" y="830"/>
                            <mxPoint x="3380" y="730"/>
                            <mxPoint x="3570" y="730"/>
                        </Array>
                    </mxGeometry>
                </mxCell>
                <mxCell id="210" value="ctr == 9 &amp;amp;&amp;amp;&lt;br&gt;M[bit_idx] == 0" style="whiteSpace=wrap;html=1;fillColor=#60a917;fontColor=#ffffff;strokeColor=#2D7600;" parent="1" vertex="1">
                    <mxGeometry x="3315" y="740" width="120" height="40" as="geometry"/>
                </mxCell>
                <mxCell id="211" value="incr_iter = 1&lt;br&gt;rst_ctr = 1" style="whiteSpace=wrap;html=1;fillColor=#a20025;fontColor=#ffffff;strokeColor=#6F0000;" parent="1" vertex="1">
                    <mxGeometry x="3315" y="780" width="120" height="30" as="geometry"/>
                </mxCell>
                <mxCell id="212" value="iter == 255" style="whiteSpace=wrap;html=1;fillColor=#60a917;fontColor=#ffffff;strokeColor=#2D7600;" parent="1" vertex="1">
                    <mxGeometry x="3360" y="560" width="120" height="20" as="geometry"/>
                </mxCell>
                <mxCell id="213" value="rst_iter = 1&lt;br&gt;set_r_one = 1" style="whiteSpace=wrap;html=1;fillColor=#a20025;fontColor=#ffffff;strokeColor=#6F0000;" parent="1" vertex="1">
                    <mxGeometry x="3360" y="580" width="120" height="40" as="geometry"/>
                </mxCell>
                <mxCell id="230" value="ctr == 0" style="whiteSpace=wrap;html=1;fillColor=#60a917;fontColor=#ffffff;strokeColor=#2D7600;" parent="1" vertex="1">
                    <mxGeometry x="2260" y="410" width="120" height="20" as="geometry"/>
                </mxCell>
                <mxCell id="231" value="sela_mul = reg0&lt;br&gt;selb_mul = reg3&lt;br&gt;en_mul = 1&lt;br&gt;-----------------&lt;br&gt;incr_ctr = 1" style="whiteSpace=wrap;html=1;fillColor=#a20025;fontColor=#ffffff;strokeColor=#6F0000;" parent="1" vertex="1">
                    <mxGeometry x="2260" y="430" width="120" height="85" as="geometry"/>
                </mxCell>
                <mxCell id="232" value="ctr == 1" style="whiteSpace=wrap;html=1;fillColor=#60a917;fontColor=#ffffff;strokeColor=#2D7600;" parent="1" vertex="1">
                    <mxGeometry x="2380" y="410" width="120" height="20" as="geometry"/>
                </mxCell>
                <mxCell id="233" value="sela_mul = reg1&lt;br&gt;selb_mul = reg3&lt;br&gt;en_mul = 1&lt;br&gt;-----------------&lt;br&gt;wen_reg0 = valid_mul&lt;br&gt;sel_reg0 = mul&lt;br&gt;-----------------&lt;br&gt;incr_ctr = 1" style="whiteSpace=wrap;html=1;fillColor=#a20025;fontColor=#ffffff;strokeColor=#6F0000;" parent="1" vertex="1">
                    <mxGeometry x="2380" y="430" width="120" height="120" as="geometry"/>
                </mxCell>
                <mxCell id="234" value="ctr == 3" style="whiteSpace=wrap;html=1;fillColor=#60a917;fontColor=#ffffff;strokeColor=#2D7600;" parent="1" vertex="1">
                    <mxGeometry x="2880" y="312.5" width="120" height="20" as="geometry"/>
                </mxCell>
                <mxCell id="235" value="sela_sub = Q&lt;br&gt;selb_sub = reg1&lt;br&gt;-------------&lt;br&gt;wen_reg1 = reg1[0]&lt;br&gt;sel_reg1 = sub&lt;br&gt;------------&lt;br&gt;rst_ctr = 1" style="whiteSpace=wrap;html=1;fillColor=#a20025;fontColor=#ffffff;strokeColor=#6F0000;" parent="1" vertex="1">
                    <mxGeometry x="2880" y="332.5" width="120" height="107.5" as="geometry"/>
                </mxCell>
                <mxCell id="236" value="ctr == 3 &amp;amp;&amp;amp;&amp;nbsp;&lt;br&gt;io_out_fire == 1" style="whiteSpace=wrap;html=1;fillColor=#60a917;fontColor=#ffffff;strokeColor=#2D7600;" parent="1" vertex="1">
                    <mxGeometry x="2880" y="110" width="120" height="30" as="geometry"/>
                </mxCell>
                <mxCell id="237" value="&lt;div&gt;o_out_valid = 1&lt;/div&gt;&lt;div&gt;incr_ctr = io_out_fire&lt;/div&gt;&lt;div&gt;sel_data = 0 (reg0)&lt;/div&gt;" style="whiteSpace=wrap;html=1;fillColor=#a20025;fontColor=#ffffff;strokeColor=#6F0000;" parent="1" vertex="1">
                    <mxGeometry x="2960" y="200" width="120" height="60" as="geometry"/>
                </mxCell>
                <mxCell id="238" value="&lt;div&gt;o_out_valid = 1&lt;/div&gt;&lt;div&gt;incr_ctr = io_out_fire&lt;/div&gt;&lt;div&gt;sel_data = 1 (reg1)&lt;/div&gt;" style="whiteSpace=wrap;html=1;fillColor=#a20025;fontColor=#ffffff;strokeColor=#6F0000;" parent="1" vertex="1">
                    <mxGeometry x="2960" y="-10" width="120" height="60" as="geometry"/>
                </mxCell>
                <mxCell id="239" value="ctr == 3 &amp;amp;&amp;amp;&amp;nbsp;&lt;br&gt;io_out_fire == 1" style="whiteSpace=wrap;html=1;fillColor=#60a917;fontColor=#ffffff;strokeColor=#2D7600;" parent="1" vertex="1">
                    <mxGeometry x="3080" y="-140" width="120" height="30" as="geometry"/>
                </mxCell>
                <mxCell id="240" value="rst_ctr == 1" style="whiteSpace=wrap;html=1;fillColor=#a20025;fontColor=#ffffff;strokeColor=#6F0000;" parent="1" vertex="1">
                    <mxGeometry x="2880" y="140" width="120" height="30" as="geometry"/>
                </mxCell>
                <mxCell id="241" value="rst_ctr == 1&lt;br&gt;rst_pointR = 1" style="whiteSpace=wrap;html=1;fillColor=#a20025;fontColor=#ffffff;strokeColor=#6F0000;" parent="1" vertex="1">
                    <mxGeometry x="3080" y="-110" width="120" height="30" as="geometry"/>
                </mxCell>
                <mxCell id="242" style="edgeStyle=none;html=1;exitX=0;exitY=1;exitDx=0;exitDy=0;entryX=0;entryY=0;entryDx=0;entryDy=0;" parent="1" source="189" target="189" edge="1">
                    <mxGeometry relative="1" as="geometry">
                        <Array as="points">
                            <mxPoint x="2630" y="518"/>
                            <mxPoint x="2630" y="460"/>
                        </Array>
                    </mxGeometry>
                </mxCell>
                <mxCell id="243" value="ctr == 2" style="whiteSpace=wrap;html=1;fillColor=#60a917;fontColor=#ffffff;strokeColor=#2D7600;" parent="1" vertex="1">
                    <mxGeometry x="2500" y="410" width="120" height="20" as="geometry"/>
                </mxCell>
                <mxCell id="244" value="sela_sub = Q&lt;br&gt;selb_sub = reg0&lt;br&gt;-----------------&lt;br&gt;wen_reg0 = reg0[0]&lt;br&gt;sel_reg0 = sub&lt;br&gt;wen_reg1 = valid_mul&lt;br&gt;sel_reg1 = mul&lt;br&gt;-----------------&lt;br&gt;incr_ctr = 1" style="whiteSpace=wrap;html=1;fillColor=#a20025;fontColor=#ffffff;strokeColor=#6F0000;" parent="1" vertex="1">
                    <mxGeometry x="2500" y="430" width="120" height="130" as="geometry"/>
                </mxCell>
                <mxCell id="248" style="edgeStyle=none;html=1;exitX=0;exitY=0.5;exitDx=0;exitDy=0;entryX=1;entryY=0.5;entryDx=0;entryDy=0;" parent="1" source="245" target="246" edge="1">
                    <mxGeometry relative="1" as="geometry"/>
                </mxCell>
                <mxCell id="245" value="S_INV_PRECOMP&lt;br&gt;7" style="ellipse;whiteSpace=wrap;html=1;" parent="1" vertex="1">
                    <mxGeometry x="2780" y="790" width="180" height="80" as="geometry"/>
                </mxCell>
                <mxCell id="249" style="edgeStyle=none;html=1;exitX=0;exitY=0.5;exitDx=0;exitDy=0;entryX=1;entryY=0.5;entryDx=0;entryDy=0;" parent="1" source="246" target="247" edge="1">
                    <mxGeometry relative="1" as="geometry"/>
                </mxCell>
                <mxCell id="246" value="S_INV_MUL&lt;br&gt;8" style="ellipse;whiteSpace=wrap;html=1;" parent="1" vertex="1">
                    <mxGeometry x="2420" y="790" width="180" height="80" as="geometry"/>
                </mxCell>
                <mxCell id="258" style="edgeStyle=none;html=1;exitX=0.5;exitY=0;exitDx=0;exitDy=0;entryX=0.5;entryY=1;entryDx=0;entryDy=0;" parent="1" source="247" target="189" edge="1">
                    <mxGeometry relative="1" as="geometry">
                        <Array as="points">
                            <mxPoint x="2140" y="660"/>
                            <mxPoint x="2870" y="660"/>
                        </Array>
                    </mxGeometry>
                </mxCell>
                <mxCell id="247" value="S_INV_POSTCOMP&lt;br&gt;9" style="ellipse;whiteSpace=wrap;html=1;" parent="1" vertex="1">
                    <mxGeometry x="2050" y="790" width="180" height="80" as="geometry"/>
                </mxCell>
                <mxCell id="250" value="ctr == 3" style="whiteSpace=wrap;html=1;fillColor=#60a917;fontColor=#ffffff;strokeColor=#2D7600;" parent="1" vertex="1">
                    <mxGeometry x="2640" y="860" width="120" height="25" as="geometry"/>
                </mxCell>
                <mxCell id="251" value="rst_ctr = 1" style="whiteSpace=wrap;html=1;fillColor=#a20025;fontColor=#ffffff;strokeColor=#6F0000;" parent="1" vertex="1">
                    <mxGeometry x="2640" y="885" width="120" height="25" as="geometry"/>
                </mxCell>
                <mxCell id="252" value="iter == 248" style="whiteSpace=wrap;html=1;fillColor=#60a917;fontColor=#ffffff;strokeColor=#2D7600;" parent="1" vertex="1">
                    <mxGeometry x="2270" y="870" width="120" height="20" as="geometry"/>
                </mxCell>
                <mxCell id="253" value="rst_iter = 1" style="whiteSpace=wrap;html=1;fillColor=#a20025;fontColor=#ffffff;strokeColor=#6F0000;" parent="1" vertex="1">
                    <mxGeometry x="2270" y="890" width="120" height="40" as="geometry"/>
                </mxCell>
                <mxCell id="254" style="edgeStyle=none;html=1;exitX=0;exitY=0.5;exitDx=0;exitDy=0;entryX=0.5;entryY=0;entryDx=0;entryDy=0;" parent="1" source="246" target="246" edge="1">
                    <mxGeometry relative="1" as="geometry">
                        <Array as="points">
                            <mxPoint x="2320" y="830"/>
                            <mxPoint x="2320" y="750"/>
                            <mxPoint x="2510" y="750"/>
                        </Array>
                    </mxGeometry>
                </mxCell>
                <mxCell id="255" value="iter &amp;lt; 247 &amp;amp;&amp;amp; ctr == 1" style="whiteSpace=wrap;html=1;fillColor=#60a917;fontColor=#ffffff;strokeColor=#2D7600;" parent="1" vertex="1">
                    <mxGeometry x="2270" y="700" width="120" height="30" as="geometry"/>
                </mxCell>
                <mxCell id="256" value="incr_iter = 1&lt;br&gt;rst_ctr = 1" style="whiteSpace=wrap;html=1;fillColor=#a20025;fontColor=#ffffff;strokeColor=#6F0000;" parent="1" vertex="1">
                    <mxGeometry x="2270" y="730" width="120" height="30" as="geometry"/>
                </mxCell>
                <mxCell id="257" value="incr_ctr = 1&lt;br&gt;-------------&lt;br&gt;do what you need to do" style="whiteSpace=wrap;html=1;fillColor=#a20025;fontColor=#ffffff;strokeColor=#6F0000;" parent="1" vertex="1">
                    <mxGeometry x="2450" y="870" width="120" height="80" as="geometry"/>
                </mxCell>
                <mxCell id="259" value="ctr == 14" style="whiteSpace=wrap;html=1;fillColor=#60a917;fontColor=#ffffff;strokeColor=#2D7600;" parent="1" vertex="1">
                    <mxGeometry x="2090" y="630" width="120" height="30" as="geometry"/>
                </mxCell>
                <mxCell id="260" value="rst_ctr = 1" style="whiteSpace=wrap;html=1;fillColor=#a20025;fontColor=#ffffff;strokeColor=#6F0000;" parent="1" vertex="1">
                    <mxGeometry x="2090" y="660" width="120" height="30" as="geometry"/>
                </mxCell>
                <mxCell id="261" style="edgeStyle=none;html=1;exitX=0.5;exitY=1;exitDx=0;exitDy=0;entryX=0;entryY=0.5;entryDx=0;entryDy=0;" parent="1" source="247" target="247" edge="1">
                    <mxGeometry relative="1" as="geometry">
                        <Array as="points">
                            <mxPoint x="2140" y="970"/>
                            <mxPoint x="1960" y="970"/>
                            <mxPoint x="1960" y="830"/>
                        </Array>
                    </mxGeometry>
                </mxCell>
                <mxCell id="262" value="ctr &amp;lt; 14" style="whiteSpace=wrap;html=1;fillColor=#60a917;fontColor=#ffffff;strokeColor=#2D7600;" parent="1" vertex="1">
                    <mxGeometry x="1980" y="930" width="120" height="30" as="geometry"/>
                </mxCell>
                <mxCell id="263" value="incr_ctr = 1&lt;br&gt;------------&lt;br&gt;do what you need to do" style="whiteSpace=wrap;html=1;fillColor=#a20025;fontColor=#ffffff;strokeColor=#6F0000;" parent="1" vertex="1">
                    <mxGeometry x="1980" y="960" width="120" height="70" as="geometry"/>
                </mxCell>
                <mxCell id="264" style="edgeStyle=none;html=1;exitX=0;exitY=0.5;exitDx=0;exitDy=0;entryX=0.5;entryY=0;entryDx=0;entryDy=0;" parent="1" source="245" target="245" edge="1">
                    <mxGeometry relative="1" as="geometry">
                        <Array as="points">
                            <mxPoint x="2680" y="830"/>
                            <mxPoint x="2680" y="720"/>
                            <mxPoint x="2870" y="720"/>
                        </Array>
                    </mxGeometry>
                </mxCell>
                <mxCell id="265" value="ctr &amp;lt; 3" style="whiteSpace=wrap;html=1;fillColor=#60a917;fontColor=#ffffff;strokeColor=#2D7600;" parent="1" vertex="1">
                    <mxGeometry x="2680" y="700" width="120" height="25" as="geometry"/>
                </mxCell>
                <mxCell id="266" value="incr_ctr = 1&lt;br&gt;---------&lt;br&gt;do what you need to do" style="whiteSpace=wrap;html=1;fillColor=#a20025;fontColor=#ffffff;strokeColor=#6F0000;" parent="1" vertex="1">
                    <mxGeometry x="2680" y="725" width="120" height="55" as="geometry"/>
                </mxCell>
                <mxCell id="267" value="iter == 247 &amp;amp;&amp;amp; ctr == 2" style="whiteSpace=wrap;html=1;fillColor=#60a917;fontColor=#ffffff;strokeColor=#2D7600;" parent="1" vertex="1">
                    <mxGeometry x="2390" y="700" width="130" height="30" as="geometry"/>
                </mxCell>
                <mxCell id="268" value="incr_iter = 1&lt;br&gt;rst_ctr = 1" style="whiteSpace=wrap;html=1;fillColor=#a20025;fontColor=#ffffff;strokeColor=#6F0000;" parent="1" vertex="1">
                    <mxGeometry x="2390" y="730" width="130" height="30" as="geometry"/>
                </mxCell>
            </root>
        </mxGraphModel>
    </diagram>
</mxfile>